PathFileType	4	(X/Y/Z)	/Users/visionmauri/Downloads/Videos/OAW13-top_Sports2D/OAW13-top_Sports2D_px_person00.trc
DataRate	CameraRate	NumFrames	NumMarkers	Units	OrigDataRate	OrigDataStartFrame	OrigNumFrames
27.0	27.0	4	22	m	27.0	1729	1977
Frame#	Time	Hip			RHip			RKnee			RAnkle			RBigToe			RSmallToe			RHeel			LHip			LKnee			LAnkle			LBigToe			LSmallToe			LHeel			Neck			Head			Nose			RShoulder			RElbow			RWrist			LShoulder			LElbow			LWrist			
		X1	Y1	Z1	X2	Y2	Z2	X3	Y3	Z3	X4	Y4	Z4	X5	Y5	Z5	X6	Y6	Z6	X7	Y7	Z7	X8	Y8	Z8	X9	Y9	Z9	X10	Y10	Z10	X11	Y11	Z11	X12	Y12	Z12	X13	Y13	Z13	X14	Y14	Z14	X15	Y15	Z15	X16	Y16	Z16	X17	Y17	Z17	X18	Y18	Z18	X19	Y19	Z19	X20	Y20	Z20	X21	Y21	Z21	X22	Y22	Z22
1729	64.06944444444444	518.2681933390248	756.2824076111641	0.0	502.76509705351907	758.3849027310777	0.0	503.61048339746117	820.2391298212309	0.0	505.3075202049028	877.9161477194606	0.0	511.3584635369034	896.8608816165565	0.0	501.692979249178	896.0709490476959	0.0	505.8031837635577	886.3162464860089	0.0	533.9750642846466	758.0479437826282	0.0	535.5457925790922	819.3517533341353	0.0	530.1586016317917	878.2687756488388	0.0	524.0334529529355	897.5291982353993	0.0	534.1769374772231	897.5432332410085	0.0	527.6676223437269	887.3016466649304	0.0	519.8083577217492	667.6999349647106	0.0	520.0128205677132	623.77276859878	0.0	519.3020046828391	659.772227030873	0.0	490.3545398612009	672.9918155266371	0.0	471.430978844118	714.0508620960555	0.0	467.0696765343297	750.4647193283402	0.0	551.7292160862834	674.8842313894085	0.0	563.3662975574487	724.6506743990946	0.0	564.9881076276828	769.6346462199617	0.0
1730	64.10650022492128	518.5839708394582	756.23154049477	0.0	503.16995084844905	758.3157782777832	0.0	504.13565387604956	820.4779834996671	0.0	505.2081693389451	877.8527800742171	0.0	511.1837847807996	896.8051486840044	0.0	501.73098840463354	895.9093992218344	0.0	505.7908004791294	885.9081562740064	0.0	534.417829929572	758.3541921185175	0.0	535.799604776032	820.0846240244533	0.0	530.4068940343892	880.6370884565368	0.0	524.3048550266104	899.2361145098578	0.0	534.9601223607139	899.2092956631925	0.0	527.9067705449694	889.3620293838246	0.0	519.8410715225956	667.8397612832075	0.0	519.7734163967795	623.6668272207984	0.0	519.4235845501606	659.6712791259254	0.0	490.48925053283676	673.3850240151359	0.0	470.606095871494	713.7843345276438	0.0	467.7382328255741	747.8301267444721	0.0	551.6783906574788	675.0758374972012	0.0	563.5262034162461	723.6996096006471	0.0	565.4404056607376	767.8130856636998	0.0
1731	64.14355600539811	518.9307150511365	756.3779546695021	0.0	503.3281002379371	758.5010689226879	0.0	504.4839116702958	820.7994709628246	0.0	505.1423270022185	877.8378167469374	0.0	511.0726968974619	897.0773235512552	0.0	501.7263107261133	896.0643730985902	0.0	505.74098905641364	885.734966491498	0.0	535.2182171075532	758.5142026798515	0.0	535.8890947009038	820.6149829752891	0.0	530.4261162473888	881.4595044872359	0.0	524.7624642212032	900.3958497947743	0.0	535.5181553832791	900.2425229549092	0.0	527.8460146690735	890.117720756172	0.0	520.6670928616749	668.3288751201508	0.0	519.9855471287192	623.7135889873194	0.0	520.086413984747	659.6661058921513	0.0	491.28486051724474	673.5515281154304	0.0	469.6063359288206	713.5371793745505	0.0	468.6753668312585	744.7096417676728	0.0	551.6172136839366	674.9247590941159	0.0	563.6680381383677	722.8938573332194	0.0	566.0292991810165	766.2226571319894	0.0
1732	64.18061178587494	519.3340052266097	756.8552113691609	0.0	503.40060975109543	758.7972779525728	0.0	504.7112768651128	821.30232256481	0.0	505.28367319536136	877.9631945792728	0.0	511.17801943589006	897.6656653088395	0.0	501.65655544537753	896.5668510107062	0.0	505.75889489677144	885.8591525338096	0.0	536.0764790579409	758.7523199092587	0.0	536.0958297136872	820.814455823122	0.0	530.3032540395347	881.4036420277222	0.0	525.1810023851541	900.9947327874264	0.0	535.3796258169145	900.6972565881199	0.0	527.403993094485	890.2069794356871	0.0	521.6231707353935	668.8130171945281	0.0	520.4198780866609	623.831901679128	0.0	520.7203556512135	659.7106350343983	0.0	492.1636158572018	673.7789762451353	0.0	468.64517817711777	713.5607446189953	0.0	470.04578513447007	741.5374246823077	0.0	551.895470728389	674.7710287323049	0.0	564.2021039409353	722.1334367215618	0.0	566.6482290676341	764.836783530607	0.0
